<svg width="810" height="1051" viewBox="0 0 810 1051" xmlns="http://www.w3.org/2000/svg"><title>Group</title><g transform="translate(0 2)" fill="none" fill-rule="evenodd"><path d="M552.765 245.62l-1.705 4.88c-.272.78-.885 1.39-1.663 1.663l-4.882 1.704c-2.42.845-2.42 4.265 0 5.11l4.882 1.704c.778.273 1.39.885 1.663 1.664l1.705 4.88c.845 2.418 4.267 2.418 5.112 0l1.705-4.88c.272-.78.885-1.39 1.664-1.663l4.882-1.703c2.42-.845 2.42-4.265 0-5.11l-4.882-1.704c-.78-.272-1.392-.884-1.664-1.663l-1.705-4.88c-.845-2.418-4.267-2.418-5.112 0M209.865 127.766l-1.705 4.88c-.272.778-.885 1.39-1.663 1.662l-4.882 1.704c-2.42.845-2.42 4.265 0 5.11l4.882 1.704c.778.272 1.39.884 1.663 1.663l1.705 4.878c.845 2.42 4.267 2.42 5.112 0l1.705-4.88c.272-.778.885-1.39 1.664-1.662l4.882-1.704c2.42-.845 2.42-4.265 0-5.11l-4.882-1.704c-.78-.272-1.392-.884-1.664-1.663l-1.705-4.88c-.845-2.418-4.267-2.418-5.112 0M254.865 911.367l-1.705 4.88c-.272.778-.885 1.39-1.663 1.662l-4.882 1.703c-2.42.845-2.42 4.265 0 5.11l4.882 1.704c.778.272 1.39.884 1.663 1.663l1.705 4.88c.845 2.418 4.267 2.418 5.112 0l1.705-4.88c.272-.78.885-1.39 1.664-1.663l4.882-1.704c2.42-.845 2.42-4.265 0-5.11l-4.882-1.704c-.78-.273-1.392-.885-1.664-1.664l-1.705-4.88c-.845-2.417-4.267-2.417-5.112 0M547.55 385.19l-.973 2.788c-.155.445-.506.795-.95.95l-2.79.974c-1.383.483-1.383 2.437 0 2.92l2.79.974c.444.155.795.505.95.95l.974 2.788c.484 1.382 2.44 1.382 2.923 0l.974-2.788c.155-.445.505-.795.95-.95l2.79-.974c1.383-.483 1.383-2.437 0-2.92l-2.79-.974c-.445-.155-.795-.505-.95-.95l-.974-2.788c-.483-1.382-2.44-1.382-2.922 0M327.95 266.435l-.973 2.79c-.155.444-.506.793-.95.95l-2.79.972c-1.383.483-1.383 2.438 0 2.92l2.79.974c.444.156.795.506.95.95l.974 2.79c.484 1.382 2.44 1.382 2.923 0l.974-2.79c.155-.444.505-.794.95-.95l2.79-.972c1.383-.483 1.383-2.438 0-2.92l-2.79-.974c-.445-.156-.795-.505-.95-.95l-.974-2.79c-.483-1.38-2.44-1.38-2.922 0M399.95 1034.742l-.973 2.79c-.155.444-.506.793-.95.95l-2.79.972c-1.383.483-1.383 2.438 0 2.92l2.79.974c.444.156.795.505.95.95l.974 2.788c.484 1.383 2.44 1.383 2.923 0l.974-2.788c.155-.445.505-.794.95-.95l2.79-.973c1.383-.483 1.383-2.438 0-2.92l-2.79-.974c-.445-.155-.795-.504-.95-.95l-.974-2.788c-.483-1.382-2.44-1.382-2.922 0M711.35 521.938l-.973 2.788c-.155.445-.506.795-.95.95l-2.79.974c-1.383.483-1.383 2.437 0 2.92l2.79.974c.444.155.795.505.95.95l.974 2.788c.484 1.382 2.44 1.382 2.923 0l.974-2.788c.155-.445.505-.795.95-.95l2.79-.974c1.383-.483 1.383-2.437 0-2.92l-2.79-.974c-.445-.155-.795-.505-.95-.95l-.974-2.788c-.483-1.382-2.44-1.382-2.922 0M115.55 881.8l-.973 2.79c-.155.444-.506.794-.95.95l-2.79.973c-1.383.483-1.383 2.437 0 2.92l2.79.974c.444.155.795.505.95.95l.974 2.788c.484 1.382 2.44 1.382 2.923 0l.974-2.788c.155-.445.505-.795.95-.95l2.79-.974c1.383-.483 1.383-2.437 0-2.92l-2.79-.974c-.445-.156-.795-.506-.95-.95l-.974-2.79c-.483-1.38-2.44-1.38-2.922 0M321.65 16.33l-.973 2.79c-.155.444-.506.794-.95.95l-2.79.973c-1.383.483-1.383 2.437 0 2.92l2.79.974c.444.155.795.505.95.95l.974 2.788c.484 1.382 2.44 1.382 2.923 0l.974-2.788c.155-.445.505-.795.95-.95l2.79-.974c1.383-.483 1.383-2.437 0-2.92l-2.79-.974c-.445-.156-.795-.506-.95-.95l-.974-2.79c-.483-1.38-2.44-1.38-2.922 0M432.35 800.832l-.973 2.788c-.155.445-.506.795-.95.95l-2.79.974c-1.383.482-1.383 2.437 0 2.92l2.79.973c.444.156.795.505.95.95l.974 2.79c.484 1.38 2.44 1.38 2.923 0l.974-2.79c.155-.445.505-.794.95-.95l2.79-.973c1.383-.483 1.383-2.438 0-2.92l-2.79-.974c-.445-.155-.795-.505-.95-.95l-.974-2.788c-.483-1.382-2.44-1.382-2.922 0" fill="#DBDDE4"/><ellipse fill="#DBDDE4" transform="matrix(-1 0 0 1 1141.816 0)" cx="570.908" cy="146.052" rx="4.808" ry="4.806"/><ellipse fill="#DBDDE4" transform="matrix(-1 0 0 1 1590.016 0)" cx="795.008" cy="345.776" rx="4.808" ry="4.806"/><ellipse fill="#DBDDE4" transform="matrix(-1 0 0 1 9.616 0)" cx="4.808" cy="419.548" rx="4.808" ry="4.806"/><ellipse fill="#DBDDE4" transform="matrix(-1 0 0 1 812.416 0)" cx="406.208" cy="165.844" rx="4.808" ry="4.806"/><ellipse fill="#DBDDE4" transform="matrix(-1 0 0 1 956.416 0)" cx="478.208" cy="934.151" rx="4.808" ry="4.806"/><ellipse fill="#DBDDE4" transform="matrix(-1 0 0 1 1609.816 0)" cx="804.908" cy="746.123" rx="4.808" ry="4.806"/><ellipse fill="#DBDDE4" transform="matrix(-1 0 0 1 196.816 0)" cx="98.408" cy="624.669" rx="4.808" ry="4.806"/><ellipse stroke="#DBDDE4" stroke-width="3.6" transform="matrix(-1 0 0 1 1411.2 0)" cx="705.6" cy="155.64" rx="7.2" ry="7.196"/><ellipse stroke="#DBDDE4" stroke-width="3.6" transform="matrix(-1 0 0 1 309.6 0)" cx="154.8" cy="274.395" rx="7.2" ry="7.196"/><ellipse stroke="#DBDDE4" stroke-width="3.6" transform="matrix(-1 0 0 1 23.4 0)" cx="11.7" cy="760.209" rx="7.2" ry="7.196"/><ellipse stroke="#DBDDE4" stroke-width="3.6" transform="matrix(-1 0 0 1 954 0)" cx="477" cy="4.498" rx="4.5" ry="4.498"/><ellipse stroke="#DBDDE4" stroke-width="3.6" transform="matrix(-1 0 0 1 1207.8 0)" cx="603.9" cy="755.711" rx="4.5" ry="4.498"/><path stroke="#DBDDE4" stroke-width="3.6" stroke-linejoin="round" d="M62.1 177.232l9 16.494h-18zM221.4 756.61l9 16.495h-18zM685.8 324.776l9 16.494h-18zM163.8 398.548l9 16.494h-18zM694.8 882.563l9 16.494h-18z"/></g></svg>